<svg width="1024" height="1024" viewBox="0 0 1024 1024" fill="none" xmlns="http://www.w3.org/2000/svg">
<path d="M294.999 672.895C294.248 672.933 293.497 672.971 292.279 672.608C291.207 670.116 290.602 668.026 290.463 665.884C443.114 665.832 595.299 665.832 748.422 665.832C746.981 662.938 746.315 661.425 745.504 659.995C725.46 624.641 705.433 589.278 685.338 553.953C652.725 496.62 620.07 439.312 587.427 381.997C562.949 339.016 538.464 296.04 514.141 252.871C516.013 252.901 517.726 253.122 518.712 253.249C519.56 251.607 520.217 250.335 520.874 249.063C532.888 270.186 544.899 291.31 556.917 312.431C573.88 342.245 590.848 372.056 607.814 401.868C626.837 435.296 645.844 468.734 664.888 502.151C685.833 538.9 706.836 575.615 727.766 612.372C738.231 630.748 748.596 649.182 758.988 667.6C759.787 669.018 760.445 670.515 761.438 672.519C759.723 672.75 758.516 673.054 757.308 673.054C609.515 673.066 461.722 673.055 313.928 673.044C313.595 673.044 313.262 673.016 312.346 672.595C309.312 670.457 306.984 669.951 305.001 672.868C302.628 672.911 300.256 672.953 297.384 672.678C296.256 672.539 295.627 672.717 294.999 672.895Z" fill="#5F5D5C"/>
<path d="M289.996 665.936C290.602 668.026 291.207 670.116 291.906 672.552C284.675 672.936 277.347 673.124 270.029 672.93C267.5 672.863 264.712 673.053 267.382 668.399C294.909 620.425 322.09 572.253 349.408 524.159C375.145 478.848 400.927 433.562 426.696 388.269C447.44 351.808 468.219 315.368 488.929 278.888C496.325 265.862 503.558 252.744 510.879 239.676C511.515 238.539 512.255 237.46 513.469 235.519C516.113 240.187 518.432 244.281 520.812 248.718C520.217 250.335 519.56 251.607 518.712 253.249C517.726 253.122 516.013 252.901 513.809 252.953C512.903 253.739 512.408 254.205 512.084 254.769C496.493 281.92 480.848 309.041 465.352 336.247C430.565 397.321 395.925 458.478 361.088 519.524C334.099 566.816 306.889 613.983 279.861 661.253C279.131 662.53 279.363 664.357 278.801 666.027C278.113 667.243 277.769 668.36 277.425 669.476C277.992 669.654 278.56 669.832 279.128 670.01C279.755 668.647 280.381 667.283 281.454 665.866C284.6 665.853 287.298 665.895 289.996 665.936Z" fill="#5B5A59"/>
<path d="M743.414 705.712C744.258 706.624 745.076 707.522 745.082 708.425C745.163 722.237 745.138 736.049 745.138 750.23C742.283 750.23 739.748 750.23 736.688 750.23C736.688 744.996 736.688 739.907 736.688 734.557C730.433 734.557 724.69 734.557 718.484 734.557C718.484 739.672 718.484 744.733 718.484 750.328C715.497 750.461 712.935 750.576 710.019 750.705C710.019 735.646 710.019 720.923 710.019 705.925C712.649 705.925 715.197 705.925 718.26 705.925C718.26 712.57 718.26 718.986 718.26 725.679C724.536 725.679 730.304 725.679 736.619 725.679C736.619 719.23 736.619 712.692 736.619 705.7C739.107 705.7 741.058 705.7 743.414 705.712Z" fill="#E1D9CA"/>
<path d="M515.022 705.805C517.237 706.07 520.097 703.784 521.031 707.986C520.451 718.801 520.277 729.065 520.184 739.329C520.179 739.859 520.866 740.394 521.231 740.927C521.231 744.168 521.231 747.409 521.231 751.586C511.175 742.542 501.768 734.081 491.583 724.92C491.583 733.946 491.583 742.103 491.583 750.525C488.564 750.525 486.147 750.525 483.254 750.525C483.254 735.503 483.254 720.501 483.254 704.915C493.128 714.038 502.7 722.883 513.207 732.591C513.207 723.096 513.207 714.722 513.718 706.283C514.493 706.081 514.758 705.943 515.022 705.805Z" fill="#DCD4C6"/>
<path d="M639.438 725.412C635.634 717.956 636.609 711.533 641.857 707.646C648.406 702.795 658.662 703.924 665.297 710.421C662.822 713.686 660.768 717.338 655.647 713.822C654.449 712.999 652.158 712.721 650.878 713.306C648.841 714.237 647.229 716.101 645.438 717.571C646.848 719.226 647.952 721.455 649.738 722.407C652.776 724.028 656.351 724.609 659.506 726.053C665.256 728.686 668.27 733.779 667.636 739.09C666.985 744.55 663.048 748.782 657.107 750.409C648.618 752.735 639.644 749.611 635.04 742.572C636.77 741.126 638.523 739.662 639.716 738.665C643.809 740.2 647.32 742.004 651.044 742.765C654.228 743.415 657.831 742.428 658.547 738.655C659.234 735.028 656.074 733.805 653.216 732.513C648.616 730.432 644.179 727.991 639.438 725.412Z" fill="#DCD4C6"/>
<path d="M317.075 750.525C312.446 751.203 308.591 751.578 306.822 746.052C305.814 742.904 288.735 743.043 286.953 745.932C283.638 751.306 283.639 751.306 275.583 750.563C282.807 735.291 289.917 720.26 297.595 704.029C304.522 720.204 310.989 735.304 317.075 750.525ZM297.462 725.089C295.484 728.571 293.505 732.052 291.198 736.113C295.431 736.113 298.635 736.113 302.406 736.113C300.776 732.339 299.339 729.014 297.462 725.089Z" fill="#DCD4C6"/>
<path d="M584.612 743.978C581.164 743.99 578.156 744.199 575.188 743.948C571.468 743.634 569.476 744.784 567.505 748.339C566.347 750.429 561.95 750.725 559.01 751.827C558.694 751.31 558.378 750.794 558.062 750.277C564.958 735.346 571.855 720.415 579.2 704.511C586.429 720.33 593.197 735.138 600.144 750.341C595 751.007 590.399 752.169 588.603 745.711C588.369 744.869 586.293 744.539 584.612 743.978ZM577.965 726.484C576.576 729.575 575.187 732.665 573.652 736.082C577.493 736.082 580.686 736.082 584.362 736.082C583.145 733.29 582.103 730.91 581.071 728.526C580.679 727.622 580.422 726.629 579.87 725.841C579.676 725.563 578.784 725.775 577.965 726.484Z" fill="#DCD4C6"/>
<path d="M362.194 713.645C364.961 719.718 367.589 725.44 370.506 731.79C373.492 725.134 376.223 719.119 378.894 713.077C382.275 705.43 382.254 705.421 391.245 706.19C384.451 721.228 377.724 736.121 370.453 752.214C363.282 736.293 356.585 721.426 349.876 706.533C357.571 704.402 358.185 704.749 362.194 713.645Z" fill="#DCD4C6"/>
<path d="M431.748 705.794C434.317 705.724 436.478 705.724 438.959 705.724C438.959 720.59 438.959 735.319 438.959 750.387C436.455 750.387 434.048 750.387 430.845 750.387C430.845 747.3 430.811 744.216 430.851 741.132C431.002 729.375 431.176 717.619 431.748 705.794Z" fill="#E1D9CA"/>
<path d="M564.045 773.879C571.127 778.455 573.152 783.92 570.331 790.003C567.612 795.868 561.14 798.627 555.357 796.388C549.089 793.961 545.889 786.776 548.202 780.327C550.508 773.897 556.005 771.569 564.045 773.879ZM560.128 777.647C554.573 778.005 551.48 781.21 552.109 785.958C552.691 790.357 556.451 793.112 560.609 792.186C564.959 791.218 567.781 786.745 565.945 782.707C565.041 780.719 562.599 779.43 560.128 777.647Z" fill="#DCD4C6"/>
<path d="M512.19 778.519C512.197 784.771 512.197 790.584 512.197 796.635C510.678 796.635 509.431 796.635 508.035 796.635C507.861 793.977 507.701 791.536 507.526 788.87C504.544 788.87 501.781 788.87 498.629 788.87C498.428 791.471 498.239 793.905 498.028 796.632C496.775 796.706 495.532 796.778 494.062 796.864C494.062 789.139 494.062 781.712 494.062 774.056C495.4 774.056 496.654 774.056 498.288 774.056C498.288 777.289 498.288 780.403 498.288 783.745C501.445 783.745 504.227 783.745 507.377 783.745C507.377 780.698 507.377 777.632 507.377 774.173C509.076 774.027 510.445 773.909 512.183 773.759C512.183 775.468 512.183 776.775 512.19 778.519Z" fill="#DCD4C6"/>
<path d="M453.754 796.788C448.886 797.727 444.808 797.254 441.227 791.813C443.263 791.581 444.671 791.219 446.04 791.33C447.134 791.418 448.249 792.536 449.233 792.389C450.812 792.153 452.291 791.248 453.813 790.627C452.746 789.558 451.816 788.283 450.582 787.465C448.425 786.035 445.172 785.407 444.065 783.477C442.895 781.435 442.601 777.292 443.903 775.826C445.631 773.882 449.223 773.198 452.121 772.843C453.802 772.637 455.693 774.136 457.64 774.928C456.591 777.871 455.538 779.099 452.459 777.803C451.129 777.243 449.043 778.48 447.3 778.9C448.481 780.191 449.489 781.727 450.886 782.709C452.613 783.921 454.979 784.32 456.511 785.692C460.142 788.944 459.073 793.253 453.754 796.788Z" fill="#DCD4C6"/>
<path d="M610.432 796.25C607.284 797.356 605.838 796.771 605.957 793.319C606.186 786.719 606.024 780.105 606.024 773.352C607.714 773.352 608.972 773.352 610.662 773.352C610.662 776.283 610.662 779.028 610.662 782.222C615.906 780.06 616.136 771.579 624.004 773.546C621.053 777.445 618.285 781.102 615.336 784.999C618.101 788.718 620.834 792.394 623.674 796.214C620.144 796.852 620.144 796.852 611.425 788.419C611.158 791.31 610.945 793.618 610.432 796.25Z" fill="#CCC7BE"/>
<path d="M396.642 793.98C394.615 795.293 392.994 796.462 391.373 797.631C390.98 797.233 390.587 796.834 390.195 796.436C393.57 788.695 396.946 780.955 400.772 772.182C404.64 780.837 408.116 788.613 411.741 796.724C406.454 795.685 401.751 794.76 396.642 793.98Z" fill="#CCC7BE"/>
<path d="M521.348 740.475C520.866 740.394 520.179 739.859 520.184 739.329C520.277 729.065 520.451 718.801 520.913 708.241C521.3 718.637 521.383 729.331 521.348 740.475Z" fill="#E1D9CA"/>
<path d="M305.434 672.934C306.984 669.951 309.312 670.457 311.881 672.532C309.955 672.918 307.912 672.958 305.434 672.934Z" fill="#5B5A59"/>
<path d="M295.331 672.952C295.627 672.717 296.256 672.539 296.943 672.623C296.555 672.927 296.109 672.968 295.331 672.952Z" fill="#5B5A59"/>
<path d="M514.748 705.724C514.758 705.943 514.493 706.081 514.11 706.086C514.152 705.849 514.313 705.747 514.748 705.724Z" fill="#E1D9CA"/>
<path d="M290.463 665.884C287.298 665.895 284.6 665.853 281.145 665.818C279.974 665.859 279.56 665.893 279.146 665.927C279.363 664.357 279.131 662.53 279.861 661.253C306.889 613.983 334.099 566.816 361.088 519.524C395.925 458.478 430.565 397.321 465.352 336.247C480.848 309.041 496.493 281.92 512.084 254.769C512.408 254.205 512.903 253.739 513.65 253.144C538.464 296.04 562.949 339.016 587.427 381.997C620.07 439.312 652.725 496.62 685.338 553.953C705.433 589.278 725.46 624.641 745.504 659.995C746.315 661.425 746.981 662.938 748.422 665.832C595.299 665.832 443.114 665.832 290.463 665.884ZM512.134 523.818C516.264 525.924 520.502 527.848 524.468 530.226C526.024 531.159 527.77 532.973 528.05 534.62C528.997 540.182 529.087 545.889 530.019 551.454C530.352 553.441 531.723 555.825 533.36 556.921C539.442 560.99 545.639 564.983 552.166 568.261C557.679 571.029 563.709 572.768 570.179 575.216C571.498 567.575 572.55 561.374 573.641 555.18C574.691 549.227 574.165 548.6 567.186 548.166C566.623 554.001 566.058 559.865 565.358 567.112C555.905 561.834 547.254 557.046 538.673 552.135C537.977 551.737 537.476 550.532 537.368 549.643C536.241 540.418 535.192 531.184 534.167 521.947C533.63 517.108 533.183 512.259 532.635 506.818C546.911 506.818 560.175 506.818 574.355 506.818C569.863 490.166 560.377 478.664 545.57 471.742C528.949 463.971 512.877 465.651 498.703 477.209C482.597 490.343 480.598 508.325 483.187 527.618C485.563 527.618 487.595 527.618 489.628 527.618C489.018 493.363 499.399 476.743 522.699 474.232C538.157 472.567 559.693 485.775 561.578 499.271C560.06 498.431 559.414 496.677 558.2 495.52C553.762 491.294 549.588 486.562 544.499 483.289C524.636 470.515 499.475 480.603 494.226 503.592C492.663 510.439 493.494 517.811 492.929 524.918C492.749 527.172 491.924 529.525 490.835 531.529C485.25 541.809 479.483 551.989 473.779 562.204C474.211 562.602 474.642 563 475.074 563.398C491.709 554.301 510.217 548.419 524.904 534.158C522.1 532.743 520.034 532.037 518.377 530.787C515.706 528.772 513.306 526.4 511.14 523.89C511.14 523.89 511.49 523.603 512.134 523.818ZM499.617 591.002C491.353 588.346 484.088 584.241 478.806 577.073C478.221 576.278 476.508 575.565 475.664 575.848C472.744 576.826 469.978 578.261 466.721 579.716C477.253 604.033 487.524 627.866 498.006 651.606C498.532 652.798 500.88 653.838 502.387 653.848C523.546 653.988 544.707 653.996 565.866 653.798C567.254 653.785 569.543 652.06 569.852 650.761C571.806 642.539 573.32 634.213 574.979 625.921C574.72 625.745 574.462 625.569 574.203 625.393C570.045 629.425 565.887 633.457 561.729 637.489C561.441 637.283 561.153 637.077 560.865 636.871C564.601 626.334 568.337 615.798 572.229 604.823C564.168 602.953 556.918 601.271 549.039 599.443C551.425 592.803 553.7 586.47 556.082 579.839C553.211 578.887 550.59 578.017 548.038 577.17C534.454 591.477 517.711 596.392 499.617 591.002ZM400.729 509.78C397.27 503.619 393.81 497.458 390.001 490.673C358.753 545.41 327.951 599.364 296.82 653.896C299.029 654.016 300.62 654.178 302.211 654.178C326.523 654.185 350.836 654.164 375.148 654.164C387.895 654.164 387.885 654.17 393.935 642.939C396.324 638.504 398.767 634.099 401.782 628.591C381.139 628.591 361.791 628.591 341.987 628.591C342.594 627.206 342.8 626.582 343.121 626.023C362.359 592.541 381.47 558.985 400.987 525.666C404.239 520.115 405.206 515.545 400.729 509.78ZM644.065 503.433C641.761 499.452 639.458 495.471 636.662 490.64C632.023 498.818 628.133 506.136 623.77 513.16C621.824 516.291 621.822 518.624 623.651 521.796C640.043 550.219 656.292 578.725 672.534 607.235C676.44 614.091 680.165 621.051 684.492 628.902C663.759 628.902 644.207 628.902 623.8 628.902C628.048 636.493 631.958 643.211 635.582 650.079C637.188 653.122 639.247 654.235 642.71 654.218C669.874 654.088 697.038 654.15 724.203 654.126C725.74 654.125 727.277 653.893 729.648 653.7C700.927 603.296 672.662 553.693 644.065 503.433ZM523.707 291.788C520.384 285.958 517.061 280.129 513.355 273.627C493.573 308.389 474.251 342.343 454.737 376.636C494.29 376.636 532.814 376.636 571.875 376.636C555.721 348.192 539.887 320.312 523.707 291.788ZM550.131 459.701C554.136 448.828 558.141 437.956 562.315 426.622C528.226 418.115 497.407 421.47 471.52 446.256C454.369 462.677 445.67 483.253 447.676 506.93C449.021 522.813 451.841 538.56 451.084 554.597C451.05 555.319 451.386 556.057 451.58 556.923C464.44 548.655 467.767 538.109 463.319 520.089C461.455 520.665 459.606 521.237 457.475 521.895C450.929 494.082 457.697 469.902 478.116 450.673C498.781 431.213 524.161 427.049 552.056 432.341C549.007 441.921 546.105 451.036 542.647 461.897C545.834 461.244 547.842 460.832 550.131 459.701ZM536.366 510.827C537.876 523.502 539.359 536.181 540.959 548.845C541.062 549.664 541.912 550.652 542.683 551.081C549.176 554.699 555.732 558.205 564.005 562.685C564.005 553.167 563.639 545.053 564.133 536.991C564.467 531.535 563.173 528.404 557.47 526.979C553.239 525.922 549.201 523.706 547.745 518.082C555.265 518.082 562.328 518.082 569.391 518.082C571.273 522.79 573.161 527.496 575.03 532.21C575.336 532.982 575.649 533.769 575.809 534.579C576.702 539.09 579.229 540.088 583.554 538.211C580.978 529.754 578.605 521.453 575.809 513.296C575.354 511.969 573.041 510.464 571.56 510.436C560.082 510.216 548.597 510.339 536.366 510.827ZM451.123 614.383C456.108 625.264 461.033 636.174 466.101 647.016C469.656 654.621 472.454 655.68 480.99 652.899C469.401 627.237 457.823 601.601 446.15 575.755C444.674 576.361 443.458 576.855 442.247 577.359C436.157 579.892 436.091 579.922 438.638 585.826C442.654 595.135 446.769 604.401 451.123 614.383ZM456.247 590.228C465.097 609.589 473.928 628.958 482.808 648.306C485.761 654.741 486.796 655.13 494.325 652.849C493.62 651.014 492.986 649.182 492.222 647.407C482.3 624.338 472.343 601.285 462.432 578.212C459.466 571.305 456.885 570.543 449.714 575.004C451.781 579.797 453.876 584.658 456.247 590.228ZM499.531 578.01C498.75 579.205 497.969 580.4 497.147 581.658C503.5 584.284 520.021 585.361 525.396 583.189C526.551 582.722 527.715 580.296 527.562 578.917C526.869 572.654 525.645 566.453 524.735 560.211C524.162 556.279 523.807 552.316 523.198 547.01C514.855 557.955 507.422 567.706 499.531 578.01ZM583.826 615.59C579.408 620.348 584.09 623.951 584.835 629.011C596.125 620.207 606.567 612.065 617.453 603.577C612.824 599.215 608.665 595.296 604.069 590.964C597.164 599.384 590.748 607.21 583.826 615.59ZM524.352 448.151C524.636 450.284 524.686 452.488 525.295 454.524C525.648 455.705 526.75 457.295 527.778 457.526C531.152 458.283 534.639 458.624 538.101 458.846C538.981 458.902 540.512 458.113 540.752 457.385C543.163 450.08 545.367 442.706 547.988 434.185C538.918 434.185 531.131 434.185 522.607 434.185C523.176 438.857 523.688 443.071 524.352 448.151ZM419.128 595.236C417.342 594.255 414.834 591.995 413.898 592.522C410.39 594.498 407.396 597.386 403.409 600.571C415.172 610.237 426.179 619.282 437.311 628.43C440.68 622.554 440.21 618.446 435.684 614.074C429.862 608.452 424.895 601.945 419.128 595.236ZM586.873 634.896C587.579 636.674 588.285 638.453 589.118 640.552C600.506 634.078 611.304 627.941 622.291 621.696C620.123 617.147 618.229 613.173 616.147 608.803C606.205 616.492 596.736 623.765 587.371 631.168C586.73 631.676 586.862 633.163 586.873 634.896ZM405.84 612.407C404.516 615.208 403.193 618.008 401.722 621.122C412.874 627.562 423.586 633.748 434.871 640.266C435.153 636.472 439.226 633.812 435.268 630.609C426.991 623.91 418.641 617.3 410.434 610.517C408.074 608.567 407.018 609.414 405.84 612.407ZM512.867 459.198C514.983 458.787 517.248 458.707 519.161 457.844C520.392 457.289 522 455.503 521.902 454.406C521.329 448.002 520.302 441.638 519.259 434.027C512.413 436.085 506.138 437.972 499.489 439.971C502.188 446.44 504.472 451.76 506.621 457.133C507.711 459.86 509.437 460.621 512.867 459.198ZM554.287 596.303C560.096 597.64 565.889 599.049 571.729 600.232C572.565 600.401 574.122 599.732 574.497 599.011C576.844 594.491 578.951 589.845 581.395 584.698C574.743 583.339 568.78 581.941 562.744 581.038C561.538 580.858 559.389 582.253 558.812 583.464C556.96 587.351 555.64 591.493 554.287 596.303ZM440.423 604.741C440.795 603.321 441.854 601.639 441.427 600.525C438.955 594.077 436.133 587.762 433.219 580.908C428.217 583.657 423.663 586.16 418.257 589.131C424.283 595.989 429.781 602.245 435.465 608.713C437.29 607.227 438.547 606.203 440.423 604.741ZM583.74 587.214C582.874 589.011 581.985 590.798 581.146 592.607C576.342 602.968 576.258 599.484 584.502 607.514C584.598 607.609 584.809 607.586 585.822 607.791C590.552 601.845 595.528 595.588 600.939 588.786C595.787 585.839 591.4 583.33 586.628 580.601C585.594 582.928 584.797 584.72 583.74 587.214ZM504.528 461.87C502.056 455.24 499.583 448.611 496.806 441.166C491.24 445.073 486.831 448.168 481.779 451.714C486.602 457.306 490.882 462.268 495.235 467.315C498.495 465.454 501.224 463.896 504.528 461.87ZM476.732 470.744C479.855 472.547 482.978 474.35 486.205 476.213C488.452 473.846 490.464 471.724 492.712 469.356C490.293 466.507 488.186 463.984 486.032 461.502C483.903 459.049 481.726 456.636 479.161 453.745C475.783 457.984 472.742 461.8 469.347 466.06C472.015 467.754 474.064 469.057 476.732 470.744ZM481.635 483.319C482.474 481.771 483.313 480.223 484.277 478.447C481.53 476.775 479.308 475.332 477.004 474.035C466.996 468.397 465.221 469.231 462.454 480.775C462.419 480.921 462.516 481.098 462.666 481.783C467.331 483.144 472.206 484.761 477.195 485.873C478.339 486.128 479.87 484.644 481.635 483.319ZM622.151 648.335C619.423 643.652 616.695 638.969 613.533 633.54C610.227 640.683 607.297 647.014 604.201 653.702C611.364 653.702 617.879 653.702 625.063 653.702C624.029 651.779 623.275 650.376 622.151 648.335ZM418.065 647.554C415.983 643.007 413.9 638.46 411.553 633.336C407.652 640.438 404.155 646.805 400.349 653.735C407.65 653.735 413.691 653.735 420.427 653.735C419.59 651.568 418.958 649.93 418.065 647.554ZM459.352 513.729C459.594 516.348 460.673 517.267 463.187 515.785C464.748 514.865 466.403 514.084 468.072 513.372C474.874 510.468 475.183 509.938 474.304 501.448C469.185 501.448 464.013 501.448 458.274 501.448C458.605 505.457 458.914 509.192 459.352 513.729ZM474.299 488.1C473.179 487.798 472.051 487.525 470.94 487.19C460.162 483.937 458.991 484.848 459.106 496.459C459.108 496.744 459.395 497.025 460.035 498.202C464.135 498.202 468.864 498.812 473.28 497.901C475.039 497.538 476.362 493.917 477.322 491.551C477.591 490.886 475.866 489.413 474.299 488.1ZM455.244 640.256C453.099 637.77 450.954 635.285 448.81 632.799C450.002 639.084 451.628 644.968 453.574 650.745C454.003 652.017 455.444 653.614 456.639 653.827C459.264 654.294 462.029 653.971 465.072 653.971C464.637 652.591 464.608 652.05 464.335 651.701C461.479 648.051 458.584 644.431 455.244 640.256Z" fill="#030303"/>
<path d="M278.801 666.027C279.56 665.893 279.974 665.859 280.698 665.872C280.381 667.283 279.754 668.647 279.128 670.01C278.56 669.832 277.992 669.654 277.425 669.476C277.769 668.36 278.113 667.243 278.801 666.027Z" fill="#5F5D5C"/>
<path d="M297.682 725.389C299.339 729.014 300.776 732.339 302.406 736.113C298.635 736.113 295.431 736.113 291.198 736.113C293.505 732.052 295.484 728.571 297.682 725.389Z" fill="#050504"/>
<path d="M578.088 726.124C578.784 725.775 579.676 725.563 579.87 725.841C580.422 726.629 580.679 727.622 581.071 728.526C582.103 730.91 583.145 733.29 584.362 736.082C580.686 736.082 577.493 736.082 573.652 736.082C575.187 732.665 576.576 729.575 578.088 726.124Z" fill="#050504"/>
<path d="M560.491 777.736C562.599 779.43 565.041 780.719 565.945 782.707C567.781 786.745 564.959 791.218 560.609 792.186C556.451 793.112 552.691 790.357 552.109 785.958C551.48 781.21 554.573 778.005 560.491 777.736Z" fill="#050504"/>
<path d="M510.791 524.178C513.306 526.4 515.706 528.772 518.377 530.787C520.034 532.037 522.1 532.743 524.904 534.158C510.217 548.419 491.709 554.301 475.074 563.398C474.642 563 474.211 562.602 473.779 562.204C479.483 551.989 485.25 541.809 490.835 531.529C491.924 529.525 492.749 527.172 492.929 524.918C493.494 517.811 492.663 510.439 494.226 503.592C499.475 480.603 524.636 470.515 544.499 483.289C549.588 486.562 553.762 491.294 558.2 495.52C559.414 496.677 560.06 498.431 561.578 499.271C559.693 485.775 538.157 472.567 522.699 474.232C499.399 476.743 489.018 493.363 489.628 527.618C487.595 527.618 485.563 527.618 483.187 527.618C480.598 508.325 482.597 490.343 498.703 477.209C512.877 465.651 528.949 463.971 545.57 471.742C560.377 478.664 569.863 490.166 574.355 506.818C560.175 506.818 546.911 506.818 532.635 506.818C533.183 512.259 533.63 517.108 534.167 521.947C535.192 531.184 536.241 540.418 537.368 549.643C537.476 550.532 537.977 551.737 538.673 552.135C547.254 557.046 555.905 561.834 565.358 567.112C566.058 559.865 566.623 554.001 567.186 548.166C574.165 548.6 574.691 549.227 573.641 555.18C572.55 561.374 571.498 567.575 570.179 575.216C563.709 572.768 557.679 571.029 552.166 568.261C545.639 564.983 539.442 560.99 533.36 556.921C531.723 555.825 530.352 553.441 530.019 551.454C529.087 545.889 528.997 540.182 528.05 534.62C527.77 532.973 526.024 531.159 524.468 530.226C520.502 527.848 516.264 525.924 511.712 523.47C510.967 522.967 510.644 522.811 510.322 522.655C510.478 523.163 510.635 523.67 510.791 524.178ZM509.293 514.751C510.891 518.817 513.725 522.063 518.172 521.187C520.999 520.63 524.117 518.266 525.765 515.813C527.983 512.512 526.762 508.634 523.98 505.795C521.144 502.902 517.614 502.378 513.883 504.064C509.551 506.021 508.504 509.61 509.293 514.751Z" fill="#5C5B5A"/>
<path d="M500.002 591.129C517.711 596.392 534.454 591.477 548.038 577.17C550.59 578.017 553.211 578.887 556.082 579.839C553.7 586.47 551.425 592.803 549.039 599.443C556.918 601.271 564.168 602.953 572.229 604.823C568.337 615.798 564.601 626.334 560.865 636.871C561.153 637.077 561.441 637.283 561.729 637.489C565.887 633.457 570.045 629.425 574.203 625.393C574.462 625.569 574.72 625.745 574.979 625.921C573.32 634.213 571.806 642.539 569.852 650.761C569.543 652.06 567.254 653.785 565.866 653.798C544.707 653.996 523.546 653.988 502.387 653.848C500.88 653.838 498.532 652.798 498.006 651.606C487.524 627.866 477.253 604.033 466.721 579.716C469.978 578.261 472.744 576.826 475.664 575.848C476.508 575.565 478.221 576.278 478.806 577.073C484.088 584.241 491.353 588.346 500.002 591.129ZM496.645 612.755C505.213 606.72 514.305 604.847 524.187 609.3C526.137 610.178 528.077 611.079 530.126 612.282C530.23 612.319 530.334 612.355 530.438 612.391C530.277 612.275 530.116 612.159 530.037 611.337C523.905 600.772 505.083 600.466 497.023 610.352C496.454 611.051 496.357 612.134 495.705 613.008C495.797 612.997 495.889 612.985 496.645 612.755ZM502.418 644.103C509.313 649.912 516.129 650.676 523.042 646.413C529.481 642.443 532.522 634.571 530.607 626.824C528.958 620.147 523.247 614.906 516.726 614.083C509.486 613.17 502.163 616.911 498.705 623.289C495.305 629.561 496.534 637.365 502.418 644.103Z" fill="#5C5B5A"/>
<path d="M400.895 510.109C405.206 515.545 404.239 520.115 400.987 525.666C381.47 558.985 362.359 592.541 343.121 626.023C342.8 626.582 342.594 627.206 341.987 628.591C361.791 628.591 381.139 628.591 401.782 628.591C398.767 634.099 396.324 638.504 393.935 642.939C387.885 654.17 387.895 654.164 375.148 654.164C350.836 654.164 326.523 654.185 302.211 654.178C300.62 654.178 299.029 654.016 296.82 653.896C327.951 599.364 358.753 545.41 390.001 490.673C393.81 497.458 397.27 503.619 400.895 510.109ZM346.636 604.149C361.735 577.868 376.831 551.586 391.936 525.309C396.522 517.332 396.204 514.949 389.278 507.94C363.034 553.92 336.849 599.798 310.008 646.825C313.319 646.825 315.089 646.825 316.86 646.825C336.186 646.819 355.513 646.826 374.84 646.802C383.246 646.792 384.905 645.426 387.484 636.023C367.983 636.023 348.676 636.023 328.357 636.023C334.709 624.93 340.481 614.851 346.636 604.149Z" fill="#5C5B5A"/>
<path d="M644.231 503.762C672.662 553.693 700.927 603.296 729.648 653.7C727.277 653.893 725.74 654.125 724.203 654.126C697.038 654.15 669.874 654.088 642.71 654.218C639.247 654.235 637.188 653.122 635.582 650.079C631.958 643.211 628.048 636.493 623.8 628.902C644.207 628.902 663.759 628.902 684.492 628.902C680.165 621.051 676.44 614.091 672.534 607.235C656.292 578.725 640.043 550.219 623.651 521.796C621.822 518.624 621.824 516.291 623.77 513.16C628.133 506.136 632.023 498.818 636.662 490.64C639.458 495.471 641.762 499.452 644.231 503.762ZM689.794 599.71C672.261 569.005 654.727 538.299 637.022 507.293C630.14 515.688 629.924 516.979 633.754 523.696C654.203 559.561 674.654 595.425 695.086 631.3C695.844 632.631 696.415 634.07 697.675 636.729C677.132 636.729 657.835 636.729 638.314 636.729C640.647 644.333 644.456 647.264 652.081 647.014C671.381 646.382 690.717 646.811 710.038 646.815C711.787 646.815 713.535 646.815 716.522 646.815C707.326 630.638 698.722 615.503 689.794 599.71Z" fill="#5C5B5A"/>
<path d="M523.88 292.11C539.887 320.312 555.721 348.192 571.875 376.636C532.814 376.636 494.29 376.636 454.737 376.636C474.251 342.343 493.573 308.389 513.355 273.627C517.061 280.129 520.384 285.958 523.88 292.11ZM521.541 303.981C519.027 299.623 516.513 295.265 513.499 290.039C498.143 316.824 483.43 342.486 468.414 368.678C498.901 368.678 528.064 368.678 558.094 368.678C545.763 346.864 533.826 325.747 521.541 303.981Z" fill="#5C5B5A"/>
<path d="M549.99 460.06C547.842 460.832 545.834 461.244 542.647 461.897C546.105 451.036 549.007 441.921 552.056 432.341C524.161 427.049 498.781 431.213 478.116 450.673C457.697 469.902 450.929 494.082 457.475 521.895C459.606 521.237 461.455 520.665 463.319 520.088C467.767 538.109 464.44 548.655 451.58 556.923C451.386 556.057 451.05 555.319 451.084 554.597C451.841 538.56 449.021 522.813 447.676 506.93C445.67 483.253 454.369 462.677 471.52 446.256C497.407 421.47 528.226 418.115 562.315 426.622C558.141 437.956 554.136 448.828 549.99 460.06Z" fill="#5B5A59"/>
<path d="M536.74 510.592C548.597 510.339 560.082 510.216 571.56 510.436C573.041 510.464 575.354 511.969 575.809 513.296C578.605 521.453 580.978 529.754 583.554 538.211C579.229 540.088 576.702 539.09 575.809 534.579C575.649 533.769 575.336 532.982 575.03 532.21C573.161 527.496 571.273 522.79 569.391 518.082C562.328 518.082 555.265 518.082 547.745 518.082C549.201 523.706 553.239 525.922 557.47 526.979C563.173 528.404 564.467 531.535 564.133 536.991C563.639 545.053 564.005 553.167 564.005 562.685C555.732 558.205 549.176 554.699 542.683 551.081C541.912 550.652 541.062 549.664 540.959 548.845C539.359 536.181 537.876 523.502 536.74 510.592Z" fill="#5B5A59"/>
<path d="M450.983 614.034C446.769 604.401 442.654 595.135 438.638 585.826C436.091 579.922 436.157 579.892 442.247 577.359C443.459 576.855 444.674 576.361 446.15 575.755C457.823 601.601 469.401 627.237 480.99 652.899C472.454 655.68 469.656 654.621 466.101 647.016C461.033 636.174 456.108 625.264 450.983 614.034Z" fill="#5C5B5A"/>
<path d="M456.11 589.873C453.876 584.658 451.781 579.797 449.714 575.004C456.885 570.543 459.466 571.305 462.432 578.212C472.343 601.285 482.3 624.338 492.222 647.407C492.986 649.182 493.62 651.014 494.325 652.849C486.796 655.13 485.761 654.741 482.808 648.306C473.928 628.958 465.097 609.589 456.11 589.873Z" fill="#5B5A59"/>
<path d="M499.76 577.734C507.422 567.706 514.855 557.955 523.198 547.01C523.807 552.316 524.162 556.279 524.735 560.211C525.645 566.453 526.869 572.654 527.562 578.917C527.715 580.296 526.551 582.722 525.396 583.189C520.021 585.361 503.5 584.284 497.147 581.658C497.969 580.4 498.75 579.205 499.76 577.734Z" fill="#5C5B5A"/>
<path d="M584.079 615.313C590.748 607.21 597.165 599.384 604.069 590.964C608.665 595.296 612.824 599.215 617.453 603.577C606.567 612.065 596.125 620.207 584.835 629.011C584.09 623.951 579.408 620.348 584.079 615.313Z" fill="#5C5B5A"/>
<path d="M524.276 447.717C523.688 443.07 523.176 438.857 522.607 434.185C531.131 434.185 538.918 434.185 547.988 434.185C545.367 442.706 543.163 450.08 540.752 457.385C540.512 458.113 538.981 458.902 538.101 458.846C534.639 458.624 531.152 458.283 527.778 457.526C526.75 457.295 525.648 455.705 525.295 454.524C524.686 452.488 524.636 450.284 524.276 447.717Z" fill="#5C5B5A"/>
<path d="M419.344 595.528C424.895 601.945 429.862 608.452 435.684 614.074C440.21 618.446 440.68 622.554 437.311 628.43C426.179 619.282 415.172 610.237 403.409 600.571C407.396 597.386 410.39 594.498 413.898 592.522C414.834 591.995 417.342 594.255 419.344 595.528Z" fill="#5B5A59"/>
<path d="M586.754 634.545C586.862 633.163 586.73 631.676 587.371 631.168C596.736 623.765 606.205 616.492 616.147 608.803C618.229 613.173 620.123 617.147 622.291 621.696C611.304 627.941 600.506 634.078 589.118 640.552C588.285 638.453 587.579 636.674 586.754 634.545Z" fill="#5C5B5A"/>
<path d="M405.99 612.079C407.018 609.414 408.074 608.567 410.434 610.517C418.641 617.3 426.991 623.91 435.268 630.609C439.226 633.812 435.153 636.472 434.871 640.266C423.586 633.748 412.874 627.562 401.722 621.122C403.193 618.008 404.516 615.208 405.99 612.079Z" fill="#5B5A59"/>
<path d="M512.475 459.321C509.437 460.621 507.711 459.86 506.621 457.133C504.472 451.76 502.188 446.44 499.489 439.971C506.138 437.972 512.413 436.085 519.259 434.027C520.302 441.638 521.329 448.002 521.902 454.406C522 455.503 520.392 457.289 519.161 457.844C517.248 458.707 514.983 458.786 512.475 459.321Z" fill="#5B5A59"/>
<path d="M554.201 595.92C555.64 591.493 556.96 587.351 558.812 583.464C559.389 582.253 561.538 580.858 562.744 581.038C568.78 581.941 574.743 583.339 581.395 584.698C578.951 589.845 576.844 594.491 574.497 599.011C574.122 599.732 572.565 600.401 571.729 600.232C565.889 599.049 560.096 597.64 554.201 595.92Z" fill="#5B5A59"/>
<path d="M440.114 604.96C438.547 606.203 437.29 607.227 435.465 608.713C429.781 602.245 424.283 595.989 418.257 589.131C423.663 586.16 428.217 583.657 433.219 580.908C436.133 587.762 438.955 594.077 441.427 600.525C441.854 601.639 440.795 603.321 440.114 604.96Z" fill="#5C5B5A"/>
<path d="M583.87 586.863C584.797 584.72 585.594 582.928 586.628 580.601C591.4 583.33 595.787 585.839 600.939 588.786C595.528 595.588 590.552 601.845 585.822 607.791C584.809 607.586 584.598 607.609 584.502 607.514C576.258 599.484 576.342 602.968 581.147 592.607C581.985 590.798 582.874 589.011 583.87 586.863Z" fill="#5B5A59"/>
<path d="M504.24 462.104C501.224 463.896 498.495 465.454 495.235 467.315C490.882 462.268 486.602 457.306 481.779 451.714C486.831 448.168 491.24 445.073 496.806 441.166C499.583 448.611 502.056 455.24 504.24 462.104Z" fill="#5B5A59"/>
<path d="M476.423 470.551C474.064 469.057 472.015 467.754 469.347 466.06C472.742 461.8 475.783 457.984 479.161 453.745C481.726 456.636 483.903 459.049 486.032 461.502C488.186 463.984 490.293 466.507 492.712 469.356C490.464 471.724 488.452 473.845 486.205 476.213C482.978 474.349 479.855 472.547 476.423 470.551Z" fill="#5B5A59"/>
<path d="M481.429 483.639C479.87 484.644 478.339 486.128 477.195 485.873C472.206 484.761 467.331 483.144 462.666 481.783C462.516 481.098 462.419 480.921 462.454 480.775C465.221 469.231 466.996 468.397 477.004 474.035C479.308 475.332 481.53 476.775 484.277 478.447C483.313 480.223 482.474 481.771 481.429 483.639Z" fill="#5B5A59"/>
<path d="M622.336 648.654C623.275 650.376 624.029 651.779 625.063 653.702C617.879 653.702 611.364 653.702 604.201 653.702C607.297 647.014 610.227 640.683 613.533 633.54C616.695 638.969 619.423 643.652 622.336 648.654Z" fill="#5F5D5C"/>
<path d="M418.195 647.923C418.958 649.93 419.59 651.568 420.427 653.735C413.691 653.735 407.65 653.735 400.349 653.735C404.155 646.805 407.652 640.438 411.553 633.336C413.9 638.46 415.983 643.007 418.195 647.923Z" fill="#5B5A59"/>
<path d="M459.288 513.328C458.914 509.192 458.605 505.457 458.274 501.448C464.013 501.448 469.185 501.448 474.304 501.448C475.183 509.938 474.874 510.468 468.072 513.372C466.403 514.084 464.748 514.865 463.187 515.785C460.673 517.267 459.594 516.348 459.288 513.328Z" fill="#5B5A59"/>
<path d="M474.677 488.205C475.866 489.413 477.591 490.886 477.322 491.551C476.362 493.917 475.039 497.538 473.28 497.901C468.864 498.812 464.135 498.202 460.035 498.202C459.395 497.025 459.108 496.743 459.106 496.459C458.991 484.848 460.162 483.937 470.94 487.19C472.051 487.525 473.179 487.798 474.677 488.205Z" fill="#5B5A59"/>
<path d="M455.472 640.529C458.584 644.431 461.479 648.051 464.335 651.701C464.608 652.05 464.637 652.591 465.072 653.971C462.029 653.971 459.264 654.294 456.639 653.827C455.444 653.614 454.003 652.017 453.574 650.745C451.628 644.968 450.002 639.084 448.81 632.799C450.954 635.285 453.099 637.77 455.472 640.529Z" fill="#5B5A59"/>
<path d="M509.206 514.362C508.504 509.61 509.551 506.021 513.883 504.064C517.614 502.378 521.144 502.902 523.98 505.795C526.762 508.634 527.983 512.512 525.765 515.813C524.117 518.266 520.999 520.63 518.172 521.187C513.725 522.063 510.891 518.817 509.206 514.362ZM515.289 507.338C511.495 511.166 511.361 515.418 515.283 516.852C516.979 517.473 519.994 517.261 521.051 516.143C522.316 514.804 523.166 511.364 522.316 510.151C521.142 508.474 518.212 508.027 515.289 507.338Z" fill="#050504"/>
<path d="M510.966 524.034C510.635 523.67 510.478 523.163 510.322 522.655C510.644 522.811 510.967 522.967 511.39 523.363C511.49 523.603 511.14 523.89 510.966 524.034Z" fill="#030303"/>
<path d="M502.159 643.846C496.534 637.365 495.305 629.561 498.705 623.289C502.163 616.911 509.486 613.17 516.726 614.083C523.247 614.906 528.958 620.147 530.607 626.824C532.522 634.571 529.481 642.443 523.042 646.413C516.129 650.676 509.313 649.912 502.159 643.846ZM522.687 640.176C526.858 635.971 527.235 631.047 524.953 625.928C522.974 621.489 519.406 618.961 514.38 618.922C509.113 618.881 504.189 622.351 502.48 627.236C500.742 632.205 502.456 638.152 506.497 641.172C511.421 644.853 515.984 644.716 522.687 640.176Z" fill="#050504"/>
<path d="M530.021 611.969C528.077 611.079 526.137 610.178 524.187 609.3C514.305 604.847 505.213 606.72 496.327 612.881C496.009 613.007 496.041 613.039 496.041 613.039C496.357 612.134 496.454 611.051 497.023 610.352C505.083 600.466 523.905 600.772 530.013 611.672C529.99 612.007 530.021 611.969 530.021 611.969Z" fill="#050504"/>
<path d="M495.995 612.99C495.889 612.985 495.797 612.997 495.873 613.024C496.041 613.039 496.009 613.007 495.995 612.99Z" fill="#050504"/>
<path d="M529.972 612.025C530.116 612.159 530.277 612.275 530.438 612.391C530.334 612.355 530.23 612.319 530.073 612.126C530.021 611.969 529.99 612.007 529.972 612.025Z" fill="#050504"/>
<path d="M346.444 604.461C340.481 614.851 334.709 624.93 328.357 636.023C348.676 636.023 367.983 636.023 387.484 636.023C384.905 645.426 383.246 646.792 374.84 646.802C355.513 646.826 336.186 646.819 316.86 646.825C315.089 646.825 313.319 646.825 310.008 646.825C336.849 599.798 363.034 553.92 389.278 507.94C396.204 514.949 396.522 517.332 391.936 525.309C376.831 551.586 361.735 577.868 346.444 604.461Z" fill="#050504"/>
<path d="M689.956 600.039C698.722 615.503 707.326 630.638 716.521 646.815C713.535 646.815 711.787 646.815 710.038 646.815C690.717 646.811 671.381 646.382 652.081 647.014C644.456 647.264 640.647 644.333 638.314 636.729C657.835 636.729 677.132 636.729 697.675 636.729C696.415 634.07 695.844 632.631 695.086 631.3C674.654 595.425 654.203 559.561 633.754 523.696C629.924 516.979 630.14 515.688 637.022 507.293C654.727 538.299 672.261 569.005 689.956 600.039Z" fill="#050504"/>
<path d="M521.715 304.306C533.826 325.747 545.763 346.864 558.094 368.678C528.064 368.678 498.901 368.678 468.414 368.678C483.43 342.486 498.143 316.824 513.499 290.039C516.513 295.265 519.027 299.623 521.715 304.306ZM515.331 315.226C514.875 314.212 514.418 313.199 513.61 311.407C503.997 327.89 495.423 342.593 486.675 357.594C504.619 357.594 521.725 357.594 539.695 357.594C531.401 343.152 523.557 329.494 515.331 315.226Z" fill="#050504"/>
<path d="M515.661 507.195C518.212 508.027 521.142 508.474 522.316 510.151C523.166 511.364 522.316 514.804 521.051 516.143C519.994 517.261 516.979 517.473 515.283 516.852C511.361 515.418 511.495 511.166 515.661 507.195Z" fill="#5B5A59"/>
<path d="M522.409 640.44C515.984 644.716 511.421 644.853 506.497 641.172C502.456 638.152 500.742 632.205 502.48 627.236C504.189 622.351 509.113 618.881 514.38 618.922C519.406 618.961 522.974 621.489 524.953 625.928C527.235 631.047 526.858 635.971 522.409 640.44Z" fill="#5B5A59"/>
<path d="M515.522 315.531C523.557 329.494 531.401 343.152 539.695 357.594C521.725 357.594 504.619 357.594 486.675 357.594C495.423 342.593 503.997 327.89 513.61 311.407C514.418 313.199 514.875 314.212 515.522 315.531ZM504.991 350.149C511.579 350.149 518.168 350.149 526.212 350.149C521.65 342.297 517.739 335.565 513.175 327.71C508.688 335.674 504.851 342.484 500.782 349.707C502.504 349.926 503.315 350.03 504.991 350.149Z" fill="#5B5A59"/>
<path d="M504.559 350.141C503.315 350.03 502.504 349.926 500.782 349.707C504.851 342.484 508.688 335.674 513.175 327.71C517.739 335.565 521.65 342.297 526.212 350.149C518.168 350.149 511.579 350.149 504.559 350.141Z" fill="#050504"/>
</svg>
